# xmcd CD database file
#
# Track frame offsets:
#	150
#	18765
#	36562
#
# Disc length: 733 seconds
#
# Revision: 0
# Processed by: cddbd v1.5.1PL0 Copyright (c) Steve Scherf et al.
# Submitted via: CDex 1.51
#
DISCID=1c02db03
DTITLE=米屋純 - とりかえしのつかない二人
DYEAR=1994
DGENRE=JPop
TTITLE0=とりかえしのつかない二人
TTITLE1=せつなさにくちづけて
TTITLE2=とりかえしのつかない二人 (karaoke)
EXTD=YEAR: 1994
EXTT0=
EXTT1=
EXTT2=
PLAYORDER=
